<svg width="73" height="70" viewBox="0 0 73 70" fill="none" xmlns="http://www.w3.org/2000/svg">
<rect x="0.5" width="72.5" height="70" rx="20" fill="white" fill-opacity="0.2" style="mix-blend-mode:overlay"/>
<rect x="1" y="0.5" width="71.5" height="69" rx="19.5" stroke="white" stroke-opacity="0.5" style="mix-blend-mode:overlay"/>
<path fill-rule="evenodd" clip-rule="evenodd" d="M29.5275 44.1577L29.3622 28.9062L43.7119 25.3767C45.5923 24.9144 47.1419 26.9101 46.2223 28.6119L31.5301 55.8457C30.6927 57.3926 28.4679 57.3938 27.6137 55.8421L12.6556 28.7321C11.7199 27.0353 13.2286 25.0454 15.1124 25.4963L29.3622 28.9062" fill="url(#paint0_linear_2_706)"/>
<g opacity="0.5" filter="url(#filter0_f_2_706)">
<path fill-rule="evenodd" clip-rule="evenodd" d="M28.8744 41.3512L28.7759 32.2557L37.3335 30.1509C38.4549 29.8752 39.379 31.0653 38.8306 32.0802L30.0687 48.3215C29.5693 49.244 28.2425 49.2447 27.7331 48.3193L18.8127 32.1519C18.2546 31.14 19.1544 29.9533 20.2778 30.2222L28.7759 32.2557" fill="#61DE70"/>
</g>
<g filter="url(#filter1_b_2_706)">
<mask id="path-5-outside-1_2_706" maskUnits="userSpaceOnUse" x="17.2082" y="15.7824" width="44" height="41" fill="black">
<rect fill="white" x="17.2082" y="15.7824" width="44" height="41"/>
<path fill-rule="evenodd" clip-rule="evenodd" d="M39.3583 40.0176L39.1546 21.2167L56.8438 16.8659C59.1619 16.296 61.0721 18.7561 59.9385 20.8539L41.827 54.4258C40.7947 56.3327 38.0521 56.3342 36.9991 54.4214L18.5599 21.0021C17.4064 18.9104 19.2662 16.4575 21.5885 17.0133L39.1546 21.2167"/>
</mask>
<path fill-rule="evenodd" clip-rule="evenodd" d="M39.3583 40.0176L39.1546 21.2167L56.8438 16.8659C59.1619 16.296 61.0721 18.7561 59.9385 20.8539L41.827 54.4258C40.7947 56.3327 38.0521 56.3342 36.9991 54.4214L18.5599 21.0021C17.4064 18.9104 19.2662 16.4575 21.5885 17.0133L39.1546 21.2167" fill="#61DE70" fill-opacity="0.2"/>
<path d="M38.8614 40.023C38.8644 40.2974 39.0893 40.5175 39.3637 40.5145C39.6381 40.5115 39.8581 40.2867 39.8552 40.0123L38.8614 40.023ZM56.8438 16.8659L56.7252 16.3834L56.7251 16.3834L56.8438 16.8659ZM59.9385 20.8539L59.5013 20.6177L59.5012 20.618L59.9385 20.8539ZM41.827 54.4258L42.264 54.6624L42.2643 54.6618L41.827 54.4258ZM36.9991 54.4214L37.4344 54.1817L37.4342 54.1813L36.9991 54.4214ZM18.5599 21.0021L18.1248 21.2421L18.1248 21.2422L18.5599 21.0021ZM21.5885 17.0133L21.4728 17.4965L21.4728 17.4965L21.5885 17.0133ZM39.8552 40.0123L39.6515 21.2113L38.6578 21.2221L38.8614 40.023L39.8552 40.0123ZM39.2733 21.6992L56.9625 17.3484L56.7251 16.3834L39.0359 20.7342L39.2733 21.6992ZM56.9624 17.3484C58.8648 16.8807 60.4286 18.9017 59.5013 20.6177L60.3757 21.0901C61.7156 18.6104 59.459 15.7112 56.7252 16.3834L56.9624 17.3484ZM59.5012 20.618L41.3897 54.1899L42.2643 54.6618L60.3758 21.0898L59.5012 20.618ZM41.39 54.1893C40.5475 55.7457 38.3004 55.7549 37.4344 54.1817L36.5638 54.661C37.8038 56.9135 41.042 56.9197 42.264 54.6624L41.39 54.1893ZM37.4342 54.1813L18.995 20.7621L18.1248 21.2422L36.564 54.6614L37.4342 54.1813ZM18.995 20.7622C18.0486 19.0459 19.5731 17.0419 21.4728 17.4965L21.7041 16.53C18.9593 15.8731 16.7642 18.7749 18.1248 21.2421L18.995 20.7622ZM21.4728 17.4965L39.039 21.7L39.2703 20.7335L21.7041 16.53L21.4728 17.4965Z" fill="url(#paint1_linear_2_706)" mask="url(#path-5-outside-1_2_706)"/>
</g>
<g filter="url(#filter2_bd_2_706)">
<path d="M39.1996 25.9918C39.8856 25.9867 40.4459 26.5386 40.4511 27.2247L40.5406 39.1498C40.5457 39.8359 39.9937 40.3962 39.3077 40.4013C38.6216 40.4065 38.0613 39.8545 38.0562 39.1685L37.9667 27.2433C37.9615 26.5573 38.5135 25.997 39.1996 25.9918Z" fill="url(#paint2_linear_2_706)"/>
<path d="M39.2003 26.0912C39.8315 26.0864 40.347 26.5943 40.3517 27.2254L40.4412 39.1506C40.4459 39.7817 39.9381 40.2972 39.3069 40.302C38.6758 40.3067 38.1603 39.7989 38.1555 39.1677L38.0661 27.2426C38.0613 26.6114 38.5691 26.0959 39.2003 26.0912Z" stroke="url(#paint3_linear_2_706)" stroke-width="0.198758"/>
</g>
<defs>
<filter id="filter0_f_2_706" x="11.686" y="23.154" width="34.2638" height="32.8159" filterUnits="userSpaceOnUse" color-interpolation-filters="sRGB">
<feFlood flood-opacity="0" result="BackgroundImageFix"/>
<feBlend mode="normal" in="SourceGraphic" in2="BackgroundImageFix" result="shape"/>
<feGaussianBlur stdDeviation="3.47826" result="effect1_foregroundBlur_2_706"/>
</filter>
<filter id="filter1_b_2_706" x="5.78472" y="4.3594" width="66.9139" height="63.919" filterUnits="userSpaceOnUse" color-interpolation-filters="sRGB">
<feFlood flood-opacity="0" result="BackgroundImageFix"/>
<feGaussianBlur in="BackgroundImageFix" stdDeviation="5.96273"/>
<feComposite in2="SourceAlpha" operator="in" result="effect1_backgroundBlur_2_706"/>
<feBlend mode="normal" in="SourceGraphic" in2="effect1_backgroundBlur_2_706" result="shape"/>
</filter>
<filter id="filter2_bd_2_706" x="30.5132" y="18.5384" width="17.4808" height="29.3164" filterUnits="userSpaceOnUse" color-interpolation-filters="sRGB">
<feFlood flood-opacity="0" result="BackgroundImageFix"/>
<feGaussianBlur in="BackgroundImageFix" stdDeviation="3.72671"/>
<feComposite in2="SourceAlpha" operator="in" result="effect1_backgroundBlur_2_706"/>
<feColorMatrix in="SourceAlpha" type="matrix" values="0 0 0 0 0 0 0 0 0 0 0 0 0 0 0 0 0 0 127 0" result="hardAlpha"/>
<feOffset dx="2.48447" dy="2.48447"/>
<feGaussianBlur stdDeviation="2.48447"/>
<feColorMatrix type="matrix" values="0 0 0 0 0.380392 0 0 0 0 0.870588 0 0 0 0 0.439216 0 0 0 0.5 0"/>
<feBlend mode="normal" in2="effect1_backgroundBlur_2_706" result="effect2_dropShadow_2_706"/>
<feBlend mode="normal" in="SourceGraphic" in2="effect2_dropShadow_2_706" result="shape"/>
</filter>
<linearGradient id="paint0_linear_2_706" x1="41.5864" y1="45.7658" x2="17.25" y2="21.7919" gradientUnits="userSpaceOnUse">
<stop stop-color="#61DE70"/>
<stop offset="1" stop-color="#A8FFB2"/>
</linearGradient>
<linearGradient id="paint1_linear_2_706" x1="24.9045" y1="21.3345" x2="49.3816" y2="53.972" gradientUnits="userSpaceOnUse">
<stop stop-color="white" stop-opacity="0.25"/>
<stop offset="1" stop-color="white" stop-opacity="0"/>
</linearGradient>
<linearGradient id="paint2_linear_2_706" x1="40.0936" y1="39.3738" x2="37.0435" y2="23.8826" gradientUnits="userSpaceOnUse">
<stop stop-color="white"/>
<stop offset="1" stop-color="white" stop-opacity="0.2"/>
</linearGradient>
<linearGradient id="paint3_linear_2_706" x1="38.3764" y1="27.6705" x2="42.3428" y2="28.548" gradientUnits="userSpaceOnUse">
<stop stop-color="white" stop-opacity="0.25"/>
<stop offset="1" stop-color="white" stop-opacity="0"/>
</linearGradient>
</defs>
</svg>
